Coordinates
version=1
nRows=11
nColumns=36
inDegrees=yes

Units are S.I. units (second, meters, Newtons, ...)
If the header above contains a line with 'inDegrees', this indicates whether rotational values are in degrees (yes) or radians (no).

endheader
time	pelvis_tilt	pelvis_list	pelvis_rotation	pelvis_tx	pelvis_ty	pelvis_tz	hip_flexion_r	hip_adduction_r	hip_rotation_r	knee_angle_r	knee_angle_r_beta	ankle_angle_r	subtalar_angle_r	mtp_angle_r	hip_flexion_l	hip_adduction_l	hip_rotation_l	knee_angle_l	knee_angle_l_beta	ankle_angle_l	subtalar_angle_l	mtp_angle_l	lumbar_extension	lumbar_bending	lumbar_rotation	arm_flex_r	arm_add_r	arm_rot_r	elbow_flex_r	pro_sup_r	arm_flex_l	arm_add_l	arm_rot_l	elbow_flex_l	pro_sup_l
      3.71666670	    -12.72406334	      3.56210591	      1.90976909	      0.21827946	      1.12503228	     -0.09984345	     30.76885147	     -8.29473248	      3.26768692	     12.69993384	      0.22165566	    -25.67140216	    -13.03765388	     -7.49999987	     31.22227478	     -0.04290359	     -7.71083709	     15.67291542	      0.27354398	    -11.77951067	     -2.42217925	     -7.49999987	    -19.37606900	     -1.30734503	     -5.62779313	     42.06014607	    -13.10822862	     13.33877260	    102.03679719	     95.80139105	     47.45448881	    -18.43227514	     12.88763491	    113.26513726	     85.84436055
      3.73333330	    -12.71591238	      3.66876256	      1.67248018	      0.22757418	      1.09770381	     -0.10279692	     31.10644788	     -8.09170077	      2.50982024	      9.50893232	      0.16596218	    -27.12482317	    -11.36692122	     -7.49999987	     31.60993690	     -0.45598093	     -8.01849725	     13.20638749	      0.23049494	    -15.67593504	     -3.81361577	     -7.49999987	    -20.32918291	     -1.66808776	     -5.75218613	     40.54953718	    -12.13537440	     13.14953299	    103.49238968	     96.67234667	     46.50477231	    -18.82711990	     12.41465669	    114.67580163	     85.92394044
      3.75000000	    -12.70166169	      3.62928242	      1.14580554	      0.23613948	      1.05653065	     -0.10111982	     31.87825310	     -7.50280969	      1.83155114	      7.40001384	      0.12915461	    -27.65054044	    -10.78631213	     -7.49999987	     32.51587536	     -1.21109643	     -8.71551758	     12.54791368	      0.21900241	    -16.40538280	     -3.23008601	     -7.49999987	    -21.09206858	     -1.84894533	     -5.37908080	     41.31382565	    -12.07928613	     13.98617591	    105.01673037	     96.77437314	     47.21224026	    -18.85372274	     12.88455198	    115.23089680	     85.55421225
      3.76666670	    -12.79265390	      3.34249318	     -0.05408670	      0.25609192	      1.01442465	     -0.10311553	     33.78128350	     -6.57018345	      1.37433318	      7.87086028	      0.13737243	    -29.91427648	    -11.02595286	     -7.49999987	     33.80055772	     -2.23987864	     -8.66663848	     13.03701756	      0.22753888	    -18.67637391	     -4.43064540	     -7.49999987	    -21.62290530	     -1.69825028	     -4.16280546	     42.86014025	    -13.07978709	     14.20927792	    105.85640417	     96.27996964	     47.50715012	    -18.58515732	     13.08726353	    116.39320723	     84.87838462
      3.78333330	    -12.16963237	      3.20098195	     -1.25661775	      0.26850646	      0.98250451	     -0.10811986	     35.09354697	     -6.02335979	      1.31135071	     10.22723148	      0.17849886	    -31.74060054	    -10.52334983	     -7.49999987	     35.01303786	     -2.92741545	     -8.00740605	     15.84235739	      0.27650130	    -20.58203584	     -4.54886205	     -7.49999987	    -22.85627656	     -1.34912469	     -3.46929551	     43.18842896	    -13.27341307	     15.54532148	    107.24613578	     95.35304930	     48.43505256	    -18.45063382	     13.21358720	    117.90017050	     83.97491108
      3.80000000	    -11.75546136	      3.26469981	     -2.25521522	      0.27401039	      0.94088609	     -0.10763237	     36.69294988	     -5.77294393	      1.44315646	     12.93995997	      0.22584491	    -31.24501145	    -11.16726348	     -7.49999987	     36.50457185	     -3.45595234	     -8.18351822	     18.38981367	      0.32096280	    -20.86642575	     -5.88244407	     -7.49999987	    -23.99256315	     -1.29428252	     -2.68223007	     44.85921963	    -13.86257118	     16.58822676	    106.22205623	     94.36306991	     51.00774362	    -18.66519042	     13.15328612	    118.31191669	     83.00323040
      3.81666670	    -11.43112808	      3.04887292	     -2.91816524	      0.29501542	      0.88497423	     -0.10809077	     39.67221459	     -5.32349896	      1.97260564	     20.37490099	      0.35560911	    -22.58705854	    -16.32073318	     -7.49999987	     38.33292984	     -4.17710501	     -7.40986702	     23.57663037	      0.41148983	    -14.28014735	     -7.66666505	     -7.49999987	    -24.24811233	     -0.54794946	     -2.18928615	     47.92252687	    -14.69304603	     18.64663440	    104.75113410	     92.48325100	     52.36767197	    -18.95966885	     13.13165443	    117.45520486	     81.19395260
      3.83333330	    -11.64661790	      2.99954662	     -2.42502312	      0.31138309	      0.84816479	     -0.10632825	     43.69279546	     -5.20324853	      3.89112217	     31.31400894	      0.54653256	    -10.09085598	    -21.32158979	     -7.49999987	     42.60271217	     -4.71004617	     -6.96141679	     33.44924762	      0.58379950	     -3.62290248	     -8.78058812	     -7.49999987	    -24.65594360	     -0.03101135	     -2.68227890	     49.74426414	    -14.45995945	     19.50309756	    104.45066692	     96.06336948	     53.76054764	    -19.74319964	     13.08508757	    118.31012379	     81.97741865
      3.85000000	    -11.90601033	      2.77811532	     -1.57445655	      0.32191442	      0.81144833	     -0.10311389	     50.25711483	     -4.75700287	      5.35008013	     45.97046630	      0.80233600	      1.48852524	    -25.55072886	     -7.49999987	     48.90996407	     -5.42255674	     -5.91660502	     46.95501192	      0.81951956	      6.15993367	    -11.22990994	     -7.49999987	    -25.76616013	     -0.31801083	     -2.95665590	     51.81855735	    -15.43662522	     20.19695323	    105.04107078	     91.08434859	     57.20134199	    -19.96505009	     14.78801686	    119.61087470	     79.30155393
      3.86666670	    -13.40601902	      2.72795681	     -0.06058350	      0.32192814	      0.78306841	     -0.10644195	     58.32858676	     -5.14935172	      5.66744048	     59.43822757	      1.03739277	     11.17344794	    -26.27527151	     -7.49999987	     57.13397166	     -5.30004463	     -4.74523896	     60.02027225	      1.04755137	     14.32450926	    -11.53435000	     -7.49999987	    -26.62305510	     -0.42949247	     -2.66110465	     53.00141956	    -16.46551673	     17.88069027	    106.27758936	     97.91293615	     60.99990854	    -18.64358112	     15.94890693	    119.23512616	     84.52972712
      3.88333330	    -13.97840159	      2.87779193	      1.31466943	      0.31974506	      0.76626069	     -0.11124533	     63.90430840	     -5.98447087	      5.85646782	     68.48388655	      1.19526930	     17.43895196	    -25.30028729	     -7.49999987	     62.82441412	     -4.33837587	     -3.88409539	     69.09594834	      1.20595180	     18.57373750	    -12.71530435	     -7.49999987	    -29.58038128	     -0.53730193	     -2.11727162	     56.71723639	    -17.16954371	     16.23950822	    106.39114810	     97.53289452	     66.43201427	    -15.25901682	     17.98908576	    116.46897962	     85.08540226
